<svg class="kotini-logo kotini-logo-main-b kotini-logo-tick-g" xmlns="http://www.w3.org/2000/svg" viewBox="0 0 146.14 41.16"><path class="cls-1" d="m0,5.61h5.9v17.64l6.06-8.37h6.6l-6.87,8.84,7.26,9.92h-6.95l-6.1-9.03v9.03H0V5.61Z"></path><path class="cls-1" d="m19.02,24.22c0-5.56,4.4-9.76,10.27-9.76s10.26,4.21,10.26,9.76-4.4,9.84-10.26,9.84-10.27-4.28-10.27-9.84Zm14.51,0c0-2.62-1.74-4.4-4.24-4.4s-4.25,1.81-4.25,4.44,1.74,4.44,4.25,4.44,4.24-1.81,4.24-4.48Z"></path><path class="cls-1" d="m44.76,19.89h-4.24v-5.02h4.24v-7.76h5.9v7.76h4.25v5.02h-4.25v13.74h-5.9v-13.74Z"></path><path class="cls-1" d="m57.27,9.05c0-1.81,1.35-3.24,3.2-3.24s3.16,1.43,3.16,3.24-1.31,3.24-3.16,3.24-3.2-1.43-3.2-3.24Zm.23,5.83h5.9v18.75h-5.9V14.88Z"></path><path class="cls-1" d="m67.57,14.88h5.91v1.5c1.31-1.2,3.16-1.89,5.25-1.89,4.13,0,7.14,3.28,7.14,7.14v12h-5.9v-10.69c0-1.97-1.35-3.28-3.2-3.28s-3.28,1.31-3.28,3.28v10.69h-5.91V14.88Z"></path><path class="cls-1" d="m89.41,9.05c0-1.81,1.35-3.24,3.2-3.24s3.16,1.43,3.16,3.24-1.31,3.24-3.16,3.24-3.2-1.43-3.2-3.24Zm.23,5.83h5.91v18.75h-5.91V14.88Z"></path><polygon class="cls-3" fill="#00a69a" points="142.2 17.14 126.06 33.28 120.25 27.47 116.31 31.41 126.06 41.16 146.14 21.08 142.2 17.14"></polygon><polygon class="cls-1" points="135.76 9.75 131.82 13.69 126.01 7.89 109.87 24.03 105.93 20.08 113.44 12.57 113.44 3.58 119.02 3.58 119.02 6.99 126.01 0 135.76 9.75"></polygon><rect class="cls-1" x="121.34" y="21.62" width="3.71" height="3.71"></rect><rect class="cls-1" x="127.1" y="15.87" width="3.71" height="3.71"></rect><rect class="cls-1" x="121.34" y="15.87" width="3.71" height="3.71"></rect><rect class="cls-1" x="127.1" y="21.62" width="3.71" height="3.71"></rect></svg>